Coordinates
version=1
nRows=12
nColumns=42
inDegrees=yes

Units are S.I. units (second, meters, Newtons, ...)
If the header above contains a line with 'inDegrees', this indicates whether rotational values are in degrees (yes) or radians (no).

endheader
time	pelvis_tilt	pelvis_list	pelvis_rotation	pelvis_tx	pelvis_ty	pelvis_tz	hip_flexion_r	hip_adduction_r	hip_rotation_r	knee_angle_r	knee_adduction_r	knee_angle_r_beta	ankle_angle_r	subtalar_angle_r	mtp_angle_r	hip_flexion_l	hip_adduction_l	hip_rotation_l	knee_angle_l	knee_adduction_l	knee_angle_l_beta	ankle_angle_l	subtalar_angle_l	mtp_angle_l	lumbar_extension	lumbar_bending	lumbar_rotation	arm_flex_r	arm_add_r	arm_rot_r	elbow_flex_r	pro_sup_r	wrist_flex_r	wrist_dev_r	arm_flex_l	arm_add_l	arm_rot_l	elbow_flex_l	pro_sup_l	wrist_flex_l	wrist_dev_l
      2.14000000	     12.89032279	     -3.47878947	     -3.26735782	      0.78736312	      0.86596996	     -0.29079808	    -29.70068969	      4.54609789	    -26.23887996	     12.89301739	     -2.05867335	      0.22502560	     16.77791217	     35.75631922	     -7.50046479	     14.00697541	     -1.10417635	    -25.26469964	     15.21793897	     -1.24106161	      0.26560314	     10.46187599	     15.78404903	     -7.50046479	    -26.29306055	      1.14987772	      3.74441096	      3.56502670	     -4.93510213	    -12.88975707	     53.48308214	     90.00000001	      0.00000000	      0.00000000	     -4.36121626	     -3.15463614	    -23.11915667	     33.98094801	     90.00000001	      0.00000000	      0.00000000
      2.15000000	     12.51781826	     -3.35458295	     -3.36901486	      0.79992440	      0.86462541	     -0.29041253	    -29.72638045	      4.32898421	    -26.03626993	     13.65995112	     -2.46882265	      0.23841112	     16.58770417	     35.60355688	     -7.50046087	     14.47143484	     -0.67951990	    -24.76875334	     15.89727928	     -1.65003630	      0.27745987	     10.37533982	     15.75709028	     -7.50046087	    -25.76699144	      0.92765431	      3.80986714	      3.18306898	     -4.89486687	    -12.98774713	     53.07965153	     90.00000001	      0.00000000	      0.00000000	     -4.55562759	     -3.20184583	    -23.17842772	     33.89207326	     90.00000001	      0.00000000	      0.00000000
      2.16000000	     12.22441514	     -3.03114116	     -3.54093134	      0.81282637	      0.86337302	     -0.29008876	    -29.73669173	      3.73082568	    -26.44914912	     14.69139119	     -2.79084623	      0.25641315	     15.99608079	     35.44632972	     -7.50045085	     14.97349138	     -0.09379279	    -24.65932706	     17.14906922	     -2.25441193	      0.29930772	     10.42441990	     14.91505413	     -7.50045085	    -25.24456889	      0.48980428	      3.79374005	      3.03633431	     -4.72728272	    -13.37094782	     51.98747603	     90.00000001	      0.00000000	      0.00000000	     -4.73891097	     -3.25507381	    -23.37241808	     33.60173846	     90.00000001	      0.00000000	      0.00000000
      2.17000000	     11.91428820	     -2.75020193	     -3.68652189	      0.82578283	      0.86229519	     -0.28971262	    -29.75813898	      3.33209612	    -26.10350738	     15.55381560	     -3.18974942	      0.27146529	     15.67826141	     35.19458240	     -7.50044705	     15.33153717	      0.49913899	    -23.79638372	     18.26408164	     -2.76972030	      0.31876836	     10.29648135	     14.65083763	     -7.50044705	    -24.75217128	      0.08025781	      3.90155628	      2.51172431	     -4.69336390	    -13.51840600	     51.56096952	     90.00000001	      0.00000000	      0.00000000	     -4.90576497	     -3.30153754	    -23.43518171	     33.56531160	     90.00000001	      0.00000000	      0.00000000
      2.18000000	     11.69233510	     -2.23028351	     -3.84691266	      0.83888599	      0.86150340	     -0.28942376	    -29.75660966	      2.53937191	    -26.39968975	     16.66556701	     -3.49212088	      0.29086902	     14.40368633	     34.79309432	     -7.50040412	     15.47078630	      1.42601597	    -21.79858773	     19.46280437	     -2.89658290	      0.33969002	      9.63469243	      9.66954407	     -7.50040412	    -24.30330181	     -0.60214949	      3.83076728	      2.70946670	     -4.06882601	    -15.37791010	     49.71282426	     90.00000001	      0.00000000	      0.00000000	     -4.95239874	     -3.25651375	    -24.36502418	     33.24699775	     90.00000001	      0.00000000	      0.00000000
      2.19000000	     11.53170851	     -1.78052017	     -4.04721875	      0.85214671	      0.86081139	     -0.28906564	    -29.75828098	      1.85454613	    -26.23491103	     17.84683438	     -3.87162123	      0.31148602	     13.41399841	     34.00457782	     -7.50039630	     15.72592877	      2.06056201	    -21.26000377	     21.12325291	     -3.34771260	      0.36867031	      9.74369614	      8.59371619	     -7.50039630	    -23.93702718	     -1.22466090	      3.88489637	      2.14444722	     -4.00657585	    -15.53888148	     49.25426744	     90.00000001	      0.00000000	      0.00000000	     -5.12707769	     -3.32952566	    -24.45918108	     33.23150875	     90.00000001	      0.00000000	      0.00000000
      2.20000000	     11.39499031	     -1.27931215	     -4.19389564	      0.86531006	      0.86056513	     -0.28871580	    -29.76595933	      1.26394231	    -25.43250119	     18.91916056	     -4.24028782	      0.33020164	     11.44413602	     32.29559563	     -7.50036971	     15.63816503	      2.88124082	    -19.12439862	     22.36599292	     -3.20514909	      0.39036022	      9.08005226	      4.35428566	     -7.50036971	    -23.62513574	     -1.91280553	      3.86106414	      1.94673756	     -3.70867595	    -16.42369519	     48.02973594	     90.00000001	      0.00000000	      0.00000000	     -5.25123462	     -3.38165961	    -24.85914246	     33.25504845	     90.00000001	      0.00000000	      0.00000000
      2.21000000	     11.39272451	     -0.71651221	     -4.36440824	      0.87851675	      0.86056391	     -0.28840548	    -29.76326267	      0.54783513	    -24.56122713	     20.28952236	     -4.58428370	      0.35411897	      9.93528114	     30.16448129	     -7.50033892	     15.43851864	      3.66577299	    -17.63563179	     23.74489766	     -3.08665024	      0.41442664	      8.73429739	      1.20727017	     -7.50033892	    -23.46627331	     -2.67083869	      3.84954758	      1.56884411	     -3.47289926	    -17.14620156	     47.25655317	     90.00000001	      0.00000000	      0.00000000	     -5.30186240	     -3.45892517	    -25.14101270	     33.26067834	     90.00000001	      0.00000000	      0.00000000
      2.22000000	     11.46875847	     -0.18001872	     -4.52653091	      0.89169591	      0.86089283	     -0.28811521	    -29.75758918	     -0.10977234	    -23.29844441	     21.75306789	     -4.87513527	      0.37966266	      7.79240093	     27.49376639	     -7.50031274	     15.07585473	      4.36747871	    -16.36810124	     25.03825332	     -2.88021933	      0.43699996	      8.62713071	     -1.26475881	     -7.50031274	    -23.40726823	     -3.40369805	      3.81252216	      1.21400565	     -3.27971498	    -17.72383932	     46.34537635	     90.00000001	      0.00000000	      0.00000000	     -5.39580247	     -3.49358868	    -25.28898022	     33.36318970	     90.00000001	      0.00000000	      0.00000000
      2.23000000	     11.74813160	      0.34900462	     -4.67949317	      0.90478858	      0.86144880	     -0.28787639	    -29.74510196	     -0.90903256	    -22.58293027	     23.58272146	     -5.14595147	      0.41159614	      6.46752077	     26.88471389	     -7.50031002	     14.49373322	      4.96063243	    -15.88934140	     26.33832746	     -2.76880606	      0.45969053	      9.02307185	     -1.72887964	     -7.50031002	    -23.60379510	     -4.12114464	      3.76692368	      0.64998456	     -3.23528153	    -17.85592951	     45.91202103	     90.00000001	      0.00000000	      0.00000000	     -5.40265261	     -3.56219380	    -25.31562393	     33.39509765	     90.00000001	      0.00000000	      0.00000000
      2.24000000	     11.97237126	      0.84580702	     -4.80929855	      0.91769503	      0.86251724	     -0.28762159	    -29.72337481	     -1.35826292	    -19.86288866	     25.26012933	     -5.16760688	      0.44087243	      3.00024676	     20.56772993	     -7.50028223	     13.65328610	      5.65424309	    -14.45855096	     27.05264216	     -2.31652085	      0.47215768	      9.01063095	     -4.85985245	     -7.50028223	    -23.74975586	     -4.81419941	      3.61807597	      0.56818601	     -2.95642119	    -18.80259209	     44.59859660	     90.00000001	      0.00000000	      0.00000000	     -5.47451468	     -3.65035489	    -25.36061711	     33.67130192	     90.00000001	      0.00000000	      0.00000000
      2.25000000	     12.40322750	      1.31337480	     -4.93539991	      0.93052322	      0.86378174	     -0.28746149	    -29.68737159	     -1.96252497	    -17.86629200	     27.30773429	     -5.13533979	      0.47660987	      0.34668314	     17.01254634	     -7.50026105	     12.55666003	      6.24708037	    -13.92920394	     27.67107963	     -2.08367846	      0.48295145	      9.54533855	     -5.71693180	     -7.50026105	    -24.14242264	     -5.45340909	      3.46234590	      0.26902130	     -2.83573984	    -19.32567365	     43.74318876	     90.00000001	      0.00000000	      0.00000000	     -5.48096324	     -3.71397095	    -25.32871959	     33.87127877	     90.00000001	      0.00000000	      0.00000000
